<?xml version="1.0" standalone="no"?><!DOCTYPE svg PUBLIC "-//W3C//DTD SVG 1.1//EN" "http://www.w3.org/Graphics/SVG/1.1/DTD/svg11.dtd"><svg class="icon" height="512" viewBox="0 0 1024 1024" version="1.1" xmlns="http://www.w3.org/2000/svg"><path d="M864 0H352C281.568 0 256 57.408 256 96c0 17.504 14.08 31.552 31.584 31.776 17.952-1.12 31.968-13.888 32.416-31.392C320.384 81.6 326.24 64 352 64h511.616C878.4 64.384 896 70.24 896 96v703.616c-0.384 14.784-6.208 32.384-32 32.384a32 32 0 1 0 0 64c70.432 0 96-57.408 96-96V96c0-70.432-57.408-96-96-96z m-192 192H160C89.568 192 64 249.408 64 288v640c0 70.432 57.408 96 96 96h512c70.432 0 96-57.408 96-96V288c0-70.432-57.408-96-96-96z m32 735.616c-0.384 14.784-6.208 32.384-32 32.384H160.384C145.6 959.616 128 953.792 128 928V288.384C128.384 273.6 134.24 256 160 256h511.616C686.4 256.384 704 262.24 704 288v639.616z m-118.624-406.24L448 658.752l-73.376-73.376A31.936 31.936 0 0 0 332.8 582.4l-128 96a31.968 31.968 0 1 0 38.4 51.2l105.792-79.36 76.384 76.384a31.968 31.968 0 0 0 45.248 0l160-160a31.968 31.968 0 1 0-45.248-45.248z" fill="#1E1E1E" /></svg>